<svg xmlns="http://www.w3.org/2000/svg" xmlns:xlink="http://www.w3.org/1999/xlink" width="304" zoomAndPan="magnify" viewBox="0 0 228 175.5" height="234" preserveAspectRatio="xMidYMid meet" version="1.0"><defs><g/><clipPath id="69bd73ca43"><path d="M 0.324219 0 L 227.675781 0 L 227.675781 175 L 0.324219 175 Z M 0.324219 0 " clip-rule="nonzero"/></clipPath><clipPath id="57b784acec"><path d="M 5 5 L 169 5 L 169 169 L 5 169 Z M 5 5 " clip-rule="nonzero"/></clipPath><clipPath id="47a08affc8"><path d="M -0.351562 54.980469 L 118.171875 -0.460938 L 174.261719 119.445312 L 55.738281 174.890625 Z M -0.351562 54.980469 " clip-rule="nonzero"/></clipPath><clipPath id="8bca4fe1a0"><path d="M 15.90625 47.9375 L 102.808594 7.289062 C 106.941406 5.355469 111.671875 5.140625 115.960938 6.699219 C 120.25 8.253906 123.742188 11.449219 125.675781 15.578125 L 166.792969 103.476562 C 168.726562 107.609375 168.9375 112.339844 167.382812 116.628906 C 165.828125 120.917969 162.632812 124.410156 158.5 126.34375 L 71.597656 166.996094 C 67.464844 168.929688 62.734375 169.140625 58.445312 167.585938 C 54.15625 166.03125 50.660156 162.835938 48.726562 158.703125 L 7.613281 70.808594 C 5.679688 66.675781 5.46875 61.945312 7.023438 57.65625 C 8.578125 53.367188 11.773438 49.871094 15.90625 47.9375 Z M 15.90625 47.9375 " clip-rule="nonzero"/></clipPath><clipPath id="859f1b97ae"><path d="M 48 7 L 199 7 L 199 158 L 48 158 Z M 48 7 " clip-rule="nonzero"/></clipPath><clipPath id="d80d971b26"><path d="M 44.285156 32.664062 L 171.75 3.089844 L 201.667969 132.042969 L 74.203125 161.617188 Z M 44.285156 32.664062 " clip-rule="nonzero"/></clipPath><clipPath id="f5e3204a25"><path d="M 61.652344 29.15625 L 155.109375 7.472656 C 159.554688 6.441406 164.222656 7.21875 168.097656 9.632812 C 171.96875 12.046875 174.722656 15.898438 175.753906 20.339844 L 197.683594 114.867188 C 198.714844 119.3125 197.9375 123.984375 195.527344 127.855469 C 193.113281 131.726562 189.261719 134.480469 184.816406 135.511719 L 91.359375 157.195312 C 86.914062 158.226562 82.242188 157.449219 78.371094 155.035156 C 74.5 152.625 71.746094 148.769531 70.714844 144.328125 L 48.78125 49.800781 C 47.75 45.355469 48.527344 40.6875 50.941406 36.8125 C 53.355469 32.941406 57.207031 30.1875 61.652344 29.15625 Z M 61.652344 29.15625 " clip-rule="nonzero"/></clipPath><clipPath id="8652b907a8"><path d="M 96.40625 16.613281 L 227.257812 16.613281 L 227.257812 148 L 96.40625 148 Z M 96.40625 16.613281 " clip-rule="nonzero"/></clipPath><clipPath id="65a568b648"><path d="M 112.621094 16.613281 L 211.554688 16.613281 C 215.71875 16.613281 219.714844 18.269531 222.660156 21.214844 C 225.605469 24.160156 227.257812 28.15625 227.257812 32.320312 L 227.257812 132.347656 C 227.257812 136.515625 225.605469 140.507812 222.660156 143.453125 C 219.714844 146.398438 215.71875 148.054688 211.554688 148.054688 L 112.621094 148.054688 C 108.457031 148.054688 104.460938 146.398438 101.515625 143.453125 C 98.570312 140.507812 96.917969 136.515625 96.917969 132.347656 L 96.917969 32.320312 C 96.917969 23.648438 103.949219 16.613281 112.621094 16.613281 Z M 112.621094 16.613281 " clip-rule="nonzero"/></clipPath></defs><g clip-path="url(#69bd73ca43)"><path fill="#ffffff" d="M 0.324219 0 L 227.675781 0 L 227.675781 175 L 0.324219 175 Z M 0.324219 0 " fill-opacity="1" fill-rule="nonzero"/></g><g clip-path="url(#57b784acec)"><g clip-path="url(#47a08affc8)"><g clip-path="url(#8bca4fe1a0)"><path fill="#e89b06" d="M 0.324219 55.226562 L 118.386719 0 L 174.046875 118.984375 L 55.984375 174.214844 Z M 0.324219 55.226562 " fill-opacity="1" fill-rule="nonzero"/></g></g></g><g clip-path="url(#859f1b97ae)"><g clip-path="url(#d80d971b26)"><g clip-path="url(#f5e3204a25)"><path fill="#e83506" d="M 44.894531 33.046875 L 171.863281 3.585938 L 201.554688 131.546875 L 74.585938 161.007812 Z M 44.894531 33.046875 " fill-opacity="1" fill-rule="nonzero"/></g></g></g><g clip-path="url(#8652b907a8)"><g clip-path="url(#65a568b648)"><path fill="#ff5757" d="M 96.917969 16.613281 L 227.257812 16.613281 L 227.257812 147.976562 L 96.917969 147.976562 Z M 96.917969 16.613281 " fill-opacity="1" fill-rule="nonzero"/></g></g><g fill="#000000" fill-opacity="1"><g transform="translate(116.723642, 100.376562)"><g><path d="M 23.796875 0 C 20.765625 -3.328125 17.890625 -8.40625 16.21875 -13.875 L 27.515625 -13.875 C 30.015625 -6.4375 36.078125 0.53125 44.40625 0.53125 C 48.265625 0.53125 53.125 -0.90625 56.15625 -5.15625 L 54.859375 -6.515625 C 52.4375 -3.9375 48.578125 -4.25 46.6875 -8.5625 C 43.65625 -15.609375 42.0625 -24.625 38.796875 -34.328125 C 36 -42.8125 28.1875 -51.765625 12.890625 -51.765625 L 12.890625 -49.78125 C 16.296875 -49.78125 17.65625 -46.53125 19.625 -40.171875 C 17.65625 -37.734375 15.53125 -35.015625 13.875 -32.4375 C 8.796875 -24.703125 1.359375 -10.90625 1.359375 0 Z M 26.90625 -15.6875 L 15.765625 -15.6875 C 14.09375 -22.125 14.171875 -29.03125 17.578125 -34.171875 C 18.484375 -35.546875 19.40625 -36.75 20.3125 -38.046875 C 22.5 -30.921875 24.625 -22.65625 26.90625 -15.6875 Z M 26.90625 -15.6875 "/></g></g></g><g fill="#000000" fill-opacity="1"><g transform="translate(167.723715, 100.376562)"><g><path d="M 1.515625 -51.375 L 1.515625 0 L 18.109375 0 L 18.109375 -39.171875 C 18.109375 -49.03125 3.40625 -40.84375 3.40625 -51.375 Z M 1.515625 -51.375 "/></g></g></g><g fill="#000000" fill-opacity="1"><g transform="translate(187.350787, 100.376562)"><g><path d="M 1.75 0 L 18.34375 0 L 18.34375 -26.0625 C 18.34375 -31.453125 13.796875 -31.453125 9.78125 -32.0625 C 5.453125 -32.734375 2.953125 -34.03125 1.75 -35.625 Z M 19.78125 -42.890625 C 19.78125 -48.265625 15.921875 -51.984375 10.078125 -51.984375 C 4.25 -51.984375 0.375 -48.265625 0.375 -42.890625 C 0.375 -37.59375 4.25 -33.875 10.078125 -33.875 C 15.921875 -33.875 19.78125 -37.59375 19.78125 -42.890625 Z M 19.78125 -42.890625 "/></g></g></g></svg>