<!DOCTYPE svg PUBLIC "-//W3C//DTD SVG 1.1//EN" "http://www.w3.org/Graphics/SVG/1.1/DTD/svg11.dtd">
<!-- Uploaded to: SVG Repo, www.svgrepo.com, Transformed by: SVG Repo Mixer Tools -->
<svg width="125px" height="125px" viewBox="-2.4 -2.4 28.80 28.80" fill="none" xmlns="http://www.w3.org/2000/svg" transform="matrix(1, 0, 0, 1, 0, 0)rotate(0)">
<g id="SVGRepo_bgCarrier" stroke-width="0" transform="translate(0,0), scale(1)">
<rect x="-2.4" y="-2.4" width="28.80" height="28.80" rx="14.4" fill="#9b22dd" strokewidth="0"/>
</g>
<g id="SVGRepo_tracerCarrier" stroke-linecap="round" stroke-linejoin="round" stroke="#fdfbfe" stroke-width="3.312"> <path d="M15.9201 12.8959L19.2583 8.89003C19.533 8.5604 19.6704 8.39557 19.7681 8.21065C19.8548 8.0466 19.9183 7.87128 19.9567 7.68973C20 7.48508 20 7.27053 20 6.84144V6.2C20 5.07989 20 4.51984 19.782 4.09202C19.5903 3.71569 19.2843 3.40973 18.908 3.21799C18.4802 3 17.9201 3 16.8 3H7.2C6.0799 3 5.51984 3 5.09202 3.21799C4.71569 3.40973 4.40973 3.71569 4.21799 4.09202C4 4.51984 4 5.07989 4 6.2V6.84144C4 7.27053 4 7.48508 4.04328 7.68973C4.08168 7.87128 4.14515 8.0466 4.23188 8.21065C4.32964 8.39557 4.467 8.5604 4.74169 8.89003L8.07995 12.8959M13.4009 11.1989L19.3668 3.53988M10.5991 11.1989L4.6394 3.53414M6.55673 6H17.4505M17 16C17 18.7614 14.7614 21 12 21C9.23858 21 7 18.7614 7 16C7 13.2386 9.23858 11 12 11C14.7614 11 17 13.2386 17 16Z" stroke="#000000" stroke-width="1.8" stroke-linejoin="round"/> </g>
<g id="SVGRepo_iconCarrier"> <path d="M15.9201 12.8959L19.2583 8.89003C19.533 8.5604 19.6704 8.39557 19.7681 8.21065C19.8548 8.0466 19.9183 7.87128 19.9567 7.68973C20 7.48508 20 7.27053 20 6.84144V6.2C20 5.07989 20 4.51984 19.782 4.09202C19.5903 3.71569 19.2843 3.40973 18.908 3.21799C18.4802 3 17.9201 3 16.8 3H7.2C6.0799 3 5.51984 3 5.09202 3.21799C4.71569 3.40973 4.40973 3.71569 4.21799 4.09202C4 4.51984 4 5.07989 4 6.2V6.84144C4 7.27053 4 7.48508 4.04328 7.68973C4.08168 7.87128 4.14515 8.0466 4.23188 8.21065C4.32964 8.39557 4.467 8.5604 4.74169 8.89003L8.07995 12.8959M13.4009 11.1989L19.3668 3.53988M10.5991 11.1989L4.6394 3.53414M6.55673 6H17.4505M17 16C17 18.7614 14.7614 21 12 21C9.23858 21 7 18.7614 7 16C7 13.2386 9.23858 11 12 11C14.7614 11 17 13.2386 17 16Z" stroke="#000000" stroke-width="1.8" stroke-linejoin="round"/> </g>
</svg>